<?xml version="1.0" encoding="utf-8"?>
<!-- Generator: Adobe Illustrator 12.0.1, SVG Export Plug-In . SVG Version: 6.00 Build 51448)  -->
<!DOCTYPE svg PUBLIC "-//W3C//DTD SVG 1.1//EN" "http://www.w3.org/Graphics/SVG/1.1/DTD/svg11.dtd" [
	<!ENTITY ns_svg "http://www.w3.org/2000/svg">
	<!ENTITY ns_xlink "http://www.w3.org/1999/xlink">
]>
<svg  version="1.1" id="Layer_1" xmlns="&ns_svg;" xmlns:xlink="&ns_xlink;" width="540.869" height="384.938"
	 viewBox="0 0 540.869 384.938" overflow="visible" enable-background="new 0 0 540.869 384.938" xml:space="preserve">
<g>
	<path fill-rule="evenodd" clip-rule="evenodd" d="M51.392,66.646c2.9,0.18,2.41,4.753-1,4
		C50.265,68.852,51.616,68.537,51.392,66.646z"/>
	<path fill-rule="evenodd" clip-rule="evenodd" d="M9.392,86.646c-0.437,1.23-1.28,2.054-3,2C5.924,86.512,7.82,86.741,9.392,86.646
		z"/>
	<path fill-rule="evenodd" clip-rule="evenodd" d="M488.392,218.646c3.2,0.234,2.292,6.486-1,6
		C488.885,221.601,487.063,220.757,488.392,218.646z"/>
	<path fill-rule="evenodd" clip-rule="evenodd" d="M466.392,250.646c0.667,0,1.333,0,2,0c0,0.667,0,1.333,0,2c-0.667,0-1.333,0-2,0
		C466.392,251.979,466.392,251.313,466.392,250.646z"/>
	<path fill-rule="evenodd" clip-rule="evenodd" d="M538.392,264.646c1.23,0.437,2.054,1.279,2,3
		C539.161,267.209,538.338,266.367,538.392,264.646z"/>
	<path fill-rule="evenodd" clip-rule="evenodd" d="M396.392,269.646c0.732-1.78,1.818-0.145,3,0
		C398.659,271.426,397.573,269.791,396.392,269.646z"/>
	<path fill-rule="evenodd" clip-rule="evenodd" d="M517.392,269.646c0.65-2.819,1.161,2.304,1,3
		C517.928,274.655,516.513,273.453,517.392,269.646z"/>
	<path fill-rule="evenodd" clip-rule="evenodd" d="M184.392,343.646c2.964,1.453-1.317,3.9,0,7
		C180.756,349.976,182.767,344.828,184.392,343.646z"/>
	<path fill-rule="evenodd" clip-rule="evenodd" d="M179.392,347.646c0.667,0,1.333,0,2,0c0,0.667,0,1.333,0,2c-0.667,0-1.333,0-2,0
		C179.392,348.979,179.392,348.313,179.392,347.646z"/>
	<path fill-rule="evenodd" clip-rule="evenodd" d="M190.392,351.646c0.667,0,1.333,0,2,0c0,0.667,0,1.333,0,2c-0.667,0-1.333,0-2,0
		C190.392,352.979,190.392,352.313,190.392,351.646z"/>
	<path fill-rule="evenodd" clip-rule="evenodd" d="M87.392,12.646c2.565,3.435,5.977,6.023,9,9l-0.5,1.5l0.5,1.5
		c-1.616,5.208,6.166,3.662,5,11l-0.5,1l0.5,1c-0.557,1.89-2.36,6.027,1,5c-1-5,0.5-5.5,0.5-5.5l-0.5-1.5
		c1.163,0.163,1.779-0.221,2-1l1,0.5l1,0.5c3.288,0.664,2.392,3.957,6,2c-2.274,0.726,0.921,6.921-3,6c-0.1,3.1,0.453,5.547,2,7
		c3.493-1.217,0.987-3.763,4-4c1.342,0.658,1.862,2.138,2,4c0.667,0,1.333,0,2,0l0.5,1.5l1.5-0.5c-0.282,1.615,0.945,1.722,1,3
		c1,0,2,0,3,0l0.5,1.5l1.5-0.5c1.228,1.772,0.729,5.271,3,6c-0.519,3.295-1.495,4.997,0,7l1,0.5l1-0.5c0,0.667,0,1.333,0,2l-0.5,1.5
		l1.5-0.5c-0.908,3.278-7.426,8.698-2,12c2.034-4.008,3.646-5.208,6-7c-2.195-2.295,1.526-4.295-2-6c4.239-1.095,2.674-7.992,6-10
		c-1.361-4.69-3.491-8.257-2-13c1.017,0.65,1.034,2.299,3,2c0-0.667,0-1.333,0-2l1,0.5l1-0.5c7.506,4.161,16.576,6.758,24,11l-0.5,1
		l0.5,1c-3.082,5.585-5.991,11.342-14,12c-3.674,1.993-4.075,7.258-7,10c-2.238,2.831-4.123-0.191-6,3
		c0.487,6.513,3.973,10.027,7,14c4.975,15.882-3.16,24.667-7,37c-2.6,1.275-3.016,2.194-6,1c-8.019,5.981-5.799,22.201-14,28
		c-6.021-4.082-12.807-12.387-9-23c-5.245-2.422-5.657-9.676-11-12c-0.665-9.001-3.345-15.989-8-21c1.689-3.978,0.785-10.548,1-16
		c-5.502-6.081-12.394,0.699-17,6c-2.483-2.169-5.444-1.601-8,1c-1.534-5.942,1.101-14.731-3-20h1v-1c0.973-0.027,0.776-1.224,1-2
		l1.5,0.5l-0.5-1.5c2.689,0.689,1.933-2.067,3-3l1.5-0.5l-0.5-1.5c5.009-0.324,6.202-4.465,10-6c-10,6-11.5,6.5-11.5,6.5l0.5,1.5
		c-1.313,0.353-1.573,1.761-3,2l-1.5-0.5l0.5,1.5c-1.163-0.163-1.779,0.221-2,1h-1v1c-3.21-3.092-1.39-5.587-3-8
		c-1.815-2.721-5.686-2.75-7-6h2v-2c-1.169-2.615,3.085-4.301-1-4l-1.5-0.5l-1.5,0.5c0.409-2.409-1.826-2.174-1-5h1v-1
		c1.086,0.247,0.678,1.988,2,2c-0.725-3.059,1.725-2.941,1-6c-1,0-2,0-3,0l0.5-1.5l-1.5,0.5c0-1,0-2,0-3l1.5,0.5l0.5-1.5
		c3.572-0.428,5.488-2.512,7-5l1.833,0.5l1.167-1.5c2.007,0.34,3.129-0.205,3-2c-0.667,0-1.333,0-2,0c-1,2-2.833,1.5-2.833,1.5
		l-1.167,1.5c-2.882,0.451-3.128,3.539-7,3l0.5-1.5l-1.5-0.5c2.687-9.98,9.727-15.606,14-24l1.5,0.5l0.5-1.5
		c2.919-0.514,8.608,2.074,14,0c0.86-0.807,0.594-2.739,2-3l0.5,1.5L87.392,12.646z M65.392,27.646c1,0,2,0,3,0c0,1.333,0,2.667,0,4
		c6.304,1.304,6.406-3.594,9-6C73.145,27.353,68.017,23.391,65.392,27.646z M96.392,41.646c0.299-1.966-1.35-1.983-2-3
		c0.776-0.224,1.973-0.027,2-1c-2.305-0.944-3.225-0.065-7-1C89.812,40.226,92.58,41.458,96.392,41.646z M74.392,44.646
		c0.804,0.529,1.624,1.043,3,1c1.426-2.97-3.384-6.219-3-2l-1.5-0.5l0.5,1.5c-3.081-0.748-1.219,3.448-5,2l-1.5-0.5l0.5,1.5
		c-2.072,0.595-6.569-1.236-7,1c2.833,1.042,4.167,1.042,7,0l1.5,0.5l-0.5-1.5c3.19,0.857,3.093-1.574,5-2h1V44.646z M63.392,58.646
		c0.667,0,1.333,0,2,0c0.61-0.057,1.184-0.149,1-1c-1.322-0.012-0.914-1.753-2-2C64.435,57.022,63.921,57.842,63.392,58.646z
		 M76.392,59.646c1.542-3.019-5.174-2.631-5-1C73.71,58.327,75.231,58.807,76.392,59.646z M125.392,112.646
		c-1.086-0.247-0.678-1.988-2-2c-0.323,7.728-7.355,22.127-4,28c-0.541-0.946,0.523-1.952,1-2v1h1c1.869-1.958,3.663-0.309,6,0
		c2.414-6.666,1.743-9.823-1-15c0.893-2.198,4.042-7.876,0-9l0.5-1.5L125.392,112.646z"/>
	<path fill-rule="evenodd" clip-rule="evenodd" d="M256.892,67.646l-0.5-1c8,0,16,0,24,0l-0.5,1.5l1.5,0.5c0,0.667,0,1.333,0,2
		c4.133-2.615,9.741,2.463,11-2h1.667l1.333,1c2.433,0.841,9.484,3.335,10,0l1.5-0.5l-0.5-1.5c3.675,0.325,8.854-0.853,11,1l-0.5,1
		l0.5,1c0,0.667,0,1.333,0,2c2.279,0.279,3.759-0.241,4-2l1.5-0.5l-0.5-1.5c20.848,0.761,39.019-0.047,58,1l-0.5,1.5l1.5,0.5
		c-7.2,4.133-9.854,12.813-11,23c-6.953,1.742-11.165,10.335-19,8c-5.993,6.053-0.55,13.243,3,18c1.363,8.392-6.469,19.154-1,24
		c3.606,3.195,7.698,8.048,12,11c1.512,7.314-5.981,13.012-8,20c-5.124,2.543-10.081,5.252-12,11c-9.073-0.192-18.946,2.719-27,1
		c-0.959-0.205-2.783-2.042-4-2c-9.563,0.325-16.64,9.791-28,7c-5.904,5.769-22.373,6.286-33,4c-3.008,1.008-1.772-2.228-2-4
		c-7.464-3.869-12.08-10.587-16-18c1.206-7.065-1.075-16.768-4-25c-0.102-2.565-3.727-1.607-5-3c0.435-8.101-6.12-9.214-7-16
		c-0.989-3.989,2.989-3.011,2-7c-2.323-5.794-6.574-12.314-5-19c9.309-7.374,22.704-5.947,36-7c1.632-3.701,1.048-9.618,5-11
		c-3.954-3.974-2.585-11.742-1-18L256.892,67.646z M314.392,80.646c-2.259-0.56,1.213-1.56-1-3c-3.863,3.051-3.134-1.166-7,1
		c4.149,3.504-2.541,2.855,0,6c-0.162-1.163,0.221-1.779,1-2c7-1,7.5,0.5,7.5,0.5l1.5-0.5c2.09,0.577,2.648,1.686,4,2
		c-4-2-4.5-3.5-4.5-3.5l-1.5,0.5C314.392,81.646,311.694,82.008,314.392,80.646z"/>
	<path fill-rule="evenodd" clip-rule="evenodd" d="M74.892,7.146l-1.5-0.5c0-0.667,0-1.333,0-2l1.5,0.5l0.5-1.5
		c5.322-1.615,4.508,4.867-1,5L74.892,7.146z"/>
	<path fill-rule="evenodd" clip-rule="evenodd" d="M40.892,23.146l1.5,0.5c-2.812,5.855-7.768,9.566-9,17l-1.167-1.5l-1.833,0.5
		c-0.466-5.799,0.156-10.511,3-13c-4.514,1.153-3.762,7.572-9,8c-1.355-3.868-3.521-1.76-6-4c0.495,0.447,1.201-1.627,1-2
		c-0.083-0.153-2.663-0.554-3-1c0.3,0.397-0.13-4.165-3-4l0.5-1.833l-1.5-1.167c0.498-5.835,10.86-1.807,16-3l1.5,0.5l-0.5-1.5
		c4.73,0.937,7.905,3.428,12,5L40.892,23.146z"/>
	<path fill-rule="evenodd" clip-rule="evenodd" d="M31.558,41.146l1.833-0.5c0,0.333,0,0.667,0,1L31.558,41.146l-1.167-1.5
		L31.558,41.146z"/>
	<path fill-rule="evenodd" clip-rule="evenodd" d="M1.892,91.146l0.5-1.5c3.553-1.957,4.024,0.916,4,5c4.331-0.998,5.549,1.117,8,2
		l0.5,1.5l1.5-0.5c0.888,1.778,2.792,2.542,2,6l-1.5-0.5l-0.5,1.5c-6.196-1.994-16.607-2.582-16-14L1.892,91.146z"/>
	<path fill-rule="evenodd" clip-rule="evenodd" d="M16.892,95.146l-1.5-0.5c-0.319-2.319,0.161-3.839,1-5
		c5.062,2.898,5.306-4.266,10-1c1.943,4.322-4.578,7.812-10,8L16.892,95.146z"/>
	<path fill-rule="evenodd" clip-rule="evenodd" d="M141.225,226.146l1.167-1.5c2.706,2.294,5.467,4.533,7,8l-1.5,1.167l0.5,1.833
		c-7.145,0.812-6.638-6.029-9-10L141.225,226.146z"/>
	<path fill-rule="evenodd" clip-rule="evenodd" d="M150.225,236.146l1.167-1.5c3.562-0.229,5.229,1.438,5,5
		c0.934-0.733,1.515-1.818,2-3l1.5,0.5l0.5-1.5c1.604,2.729,4.38,4.287,4,9l-1.5-0.5l-0.5,1.5c-0.851-0.184-0.943,0.39-1,1l-1.5-0.5
		l0.5,1.5c-5.722-2.278-9.698-6.302-12-12L150.225,236.146z"/>
	<path fill-rule="evenodd" clip-rule="evenodd" d="M176.892,296.146l0.5-1.5c5.904-1.237,3.337,5.996,7,7l-0.5,1.5l1.5,0.5
		c-2.027,1.64-3.257,4.076-3,8l-1.833-0.5l-1.167,1.5c-1.814-5.187-1.875-12.125-4-17L176.892,296.146z"/>
	<path fill-rule="evenodd" clip-rule="evenodd" d="M171.558,354.146l1.833-0.5c3.074,2.26,5.612,5.055,10,6l0.5,1.5l1.5-0.5
		c1.643,3.206,3.344,2.551,7,2l0.5,1.5l1.5-0.5c2.321,2.306-1.851,3.225-1,7c-10.178,0.271-30.718,2.894-35-6
		c2.188-5.812,6.051-9.949,12-12L171.558,354.146z"/>
	<path fill-rule="evenodd" clip-rule="evenodd" d="M195.892,354.146l-1.5-0.5c0.416-5.997,5.327-5.441,9-6
		c-0.704-3.847,0.834-9.243-3-7c-2.709-0.903,2.286-2.237,2-4l1.833,0.5l1.167-1.5c6.249-2.211,8.624,6.204,17,5
		c-0.599-2.599,0.401-3.599,3-3c0-1,0-2,0-3l1.5,0.5l0.5-1.5c2.662,5.729,1.908,10.092,4,15c-3.875,6.792-18.87,2.463-22,10
		c-4.708-0.958-9.365-1.969-14-3L195.892,354.146z"/>
	<path fill-rule="evenodd" clip-rule="evenodd" d="M199.892,298.813l-1.5-1.167c0.553-1.78,0.514-4.153,2-5l1.5,0.5l1.5-0.5
		c-0.169,4.217,1.536-0.018,3,0c0.247,5.773,4.45,12.856,2,18c0.163-1.162-0.221-1.779-1-2l-0.25-1.75l-1.75-0.25
		c-1.622-2.378-3.973-4.027-6-6L199.892,298.813z"/>
	<path fill-rule="evenodd" clip-rule="evenodd" d="M204.892,269.146l-1.5,0.5c-0.592-9.438,0.711-19.328,2-29
		c8.025,0.194,12.202-0.226,22-1l-0.5,1.5l1.5,0.5c-0.661,2.672-0.419,6.248-2,8l-0.5-1.5l-1.5,0.5c0-1,0-2,0-3
		c-1.409,1.605-3.666,1.353-6,4l-1.5-0.5l0.5,1.5c-1.135,0.19-0.555,1.003,0,1c0.247,1.086,1.988,0.679,2,2
		c-1.964,3.1-4.998-3.438-6-1c-1.718,2.204,2.908,7.82-1,10c1.627,4.039,3.635,7.698,4,13c-4.628-1.626-1.401,8.227,1,10
		c-4.416-3.289-0.471,12.46,1,4c-0.308,3.358,1.335,8.668-3,8c-6.109-6.225-4.712-19.954-10-27L204.892,269.146z"/>
	<path fill-rule="evenodd" clip-rule="evenodd" d="M369.892,247.146l0.5,1.5c-2.411,4.256-5.239,8.095-13,7
		c0.188-2.812,3.263-2.737,4-5c-2.333,0-4.667,0-7,0c-0.81,0.19-0.997,1.003-2,1l-0.5-1.5l-1.5,0.5l1.5-1.167l-0.5-1.833
		c0.027-0.973,1.224-0.776,2-1c2.669-2.58-2.302-1.052-1-5c4.293-0.626,6.442,0.891,8,3c2.602-3.154-3.04-5.556,1-8
		c-3.422,1.632-3.005-0.119-5-2l0.5-1.5l-0.5-1.5c3.531-2.013,1.603-3.27,4-6c10.91,1.647,15.309-11.166,26-13l-0.5,1.5l0.5,1.5
		c-3.877,5.79-11.16,8.174-11,18c-2.665,1.002-3.297,4.036-5,6c5.363,0.431-3.113,4.51,1,7L369.892,247.146z"/>
	<path fill-rule="evenodd" clip-rule="evenodd" d="M347.392,249.146l1,1.5c-0.848,2.748-3.622,6.878-7,4l0.5-1l-0.5-1
		c-1.119-5.452,5.207-3.459,6-7c0.973,0.027,0.776,1.224,1,2L347.392,249.146z"/>
	<path fill-rule="evenodd" clip-rule="evenodd" d="M444.225,282.146l1.167-1.5c1.656,1.011,1.086,4.247,2,6l-1.786-0.357
		l-1.214,1.357c-4.658-0.88,0.675,3.296-2,3c0.184-0.851-0.39-0.943-1-1l-1.5-0.5l-1.5,0.5c-1.158-1.479-1.158-2.521,0-4
		c-4,0-8,0-12,0c0.351,6.018,0.126,11.459-3,14c-3.056,0.723-3.645-1.022-6-1l0.5-1.5l-1.5-0.5c1.621-4.422,0.114-8.74,1-12l-0.5-1
		l-0.5-1c2.518-3.229,5.577,0.085,8-2c-1.172-0.161-0.844-1.823-1-3c2.729,0.729,2.013-1.987,4-2v1h1c0.807,0.693,2.739,1.556,3,0
		c-0.81-0.19-0.997-1.003-2-1l0.5-1.5l-1.5-0.5c0.19-0.81,1.003-0.997,1-2l1.5,0.5l-0.5-1.5c4.178-0.512,6.775,0.558,9,2l-0.5,1
		l0.5,1c-0.812,3.458,1.867,4.222,0,6c2.688-1.782,1.933,4.404,3,1L444.225,282.146z"/>
	<path fill-rule="evenodd" clip-rule="evenodd" d="M424.892,363.146l1.5-0.5c0.282,1.615-0.945,1.722-1,3
		c3.407,2.593,6.281,5.719,12,6c0.429,1.904,2.154,2.513,2,5c2.677-4.63,1.241,2.242,5,2c5.501-1.532,3.861-8.858,1-12
		c2.772-2.407,6.672-1.456,12-3l1.167,1.5l1.833-0.5c0,2.333,0,4.667,0,7c-2.829,3.504-7.707,4.959-8,11
		c-12.693-0.38-25.932,4.548-42,1c1.162-10.838,8.905-15.095,14-22L424.892,363.146z"/>
	<path fill-rule="evenodd" clip-rule="evenodd" d="M481.392,270.646l-2,1c-1.172-0.161-0.844-1.823-1-3l1.5,0.5l0.5-1.5
		c0.333,0,0.667,0,1,0c1.357-0.31,0.83-2.504,1-4c9.204-3.129,10.711-13.956,17-20l1.167,1.5l1.833-0.5
		c-0.445,3.563-3.087,11.449,2,12c-1.723-8.075,4.179-13.796,1-20c0.184,0.851-0.39,0.943-1,1l-1.167-1.5l-1.833,0.5
		c1.288-5.046,0.901-11.765,3-16l1.167,1.5l1.833-0.5c0.609,2.391-1.255,7.256,1,8c-0.207-2.874,0.254-5.08,2-6l1.167,1.5l1.833-0.5
		c-0.979,4.646,1.296,6.037,2,9l-1-0.5l-1,0.5c-3.86,2.363-1.085,8.742-1,13c-2.604,6.281-3.848,9.937-4,17
		c0.903,2.729,2.237-3.042,4,0c-1.879,1.454-0.121,6.546-2,8c3.444,10.194,5.25,23.029,8,35c2.109,9.183,5.405,18.31,10,25
		c2.643-7.99-1.969-17.354-3-25l1.833,0.5l1.167-1.5c2.97,2.03,3.225,6.775,7,8l1.167,1.5l1.833-0.5
		c-4.504,15.829-5.707,34.96-16,45l-1.5-0.5l0.5,1.5c-3.509-1.491-5.675-4.325-5-10c2.823-1.58,4.247,1.15,7-1
		c-2.474-5.962-6.814-10.668-9-18c-1.836-6.159-1-13.338-3-19c-1.034-2.928-4.615-5.883-6-9c-1.853-4.169-0.719-7.025-5-10
		c0,1,0,2,0,3l-1.5-0.5l-0.5,1.5c-2.064-2.936-2.789-7.211-4-11l1.5,0.5l-0.5-1.5c1.162,0.162,1.779-0.221,2-1l1.5,0.5l1.5-0.5
		c2.059,0.274,0.941,3.726,3,4c-1.139-10.104,1.188-26.023-7-31c-1.688,4.979-6.31,7.024-7,13l-1.5-0.5l-0.5,1.5
		c-2.08-2.17-3.232,0.122-5,1L481.392,270.646z"/>
	<path fill-rule="evenodd" clip-rule="evenodd" d="M471.892,235.146l-1.5,0.5c-2.055,0.872-1.996-5.088-3-2
		c-1.789-3.219,5.052-2.841,4-10l1.5,0.5l-0.5-1.5c1.241-3.092,2.466-6.2,5-8c-0.013-2.806-2.729,2.381-2-2
		c1.982-3.685,5.181-6.152,7-10c-1.047-4.286-6.111-4.556-10-6c-1.265-12.63-4.053-17.12,0-29c-6.377-0.368-12.911-3.68-20-6
		c-6.445-8.999-1.487-17.174,2-26c-2.36-2.407-5.83-5.246-3-10c-0.91-1.757-3.504-1.829-5-3c0-4,0-8,0-12
		c-8.665,3.399-17.214,2.092-27,3c-1.789-1.877-3.571-3.762-5-6c0.901-5.432,3.364-9.302,3-16c-4.216-6.118-5.807-14.859-10-21
		c-1.333,0-2.667,0-4,0v-1h-1c6.128-1.431,14.596-2.797,20-2l0.5,1.5l1.5-0.5c3.464,4.874,12.143,0.135,16-1l0.5,0.5l0.5,0.5
		c5.619-1.769,6.546,1.863,10,0l0.5,0.5l0.5,0.5c2.348,0.319,3.754,1.58,7,1l1.5-0.5l-0.5-1.5c0.667,0,1.333,0,2,0
		c0-0.667,0-1.333,0-2l1.357-1.214l-0.357-1.786c16.395,1.761,34.81-2.729,47,5c6.143,3.895,8.094,11.056,14,15l-1.5,1.167
		l0.5,1.833c-0.333,0-0.667,0-1,0c0.745,3.078-2.745,1.922-2,5c2.729-0.729,2.013,1.987,4,2l1.167,1.5l1.833-0.5
		c0.051,32.347-0.824,45.009-1,75l-1-0.5l-1,0.5c-3.18-1.154-0.617-8.049-6-7l-1.167-1.5l-1.833,0.5c-0.609-2.391,1.255-7.255-1-8
		c-0.281,20.385-7.217,34.117-7,55l-1.833-0.5l-1.167,1.5c-3.766-6.303,1.368-18.743-2-27c-2.538,1.795,0.994,9.661-3,10
		c-1.987-0.013-1.271-2.729-4-2c-0.908,2.759-0.311,7.022-2,9c-0.86-0.807-0.594-2.739-2-3c-1.854,0.879-6.833,3.744-4,6
		c0.247-1.258,1.988-1.009,2,0c-0.691,2.857-5.204,4.896-1,7c-2.251,2.115-2.858,6.47-5,6c1.357,0.31,0.83,2.504,1,4h-1v1
		c-0.81-0.19-0.997-1.003-2-1c0.479,3.146-1.424,3.909-2,6l0.5,0.5l0.5,0.5c-2.575,3.425-4.749,7.251-8,10L471.892,235.146z
		 M503.392,99.646c-0.961-0.404,0.425-3.681-1-5c-1.145-1.06-11.369-2.108-16-4c-0.876-0.358,0.171-1.996-2-2
		c-1.016-0.002-1.035,2.792-3,2c-1.597-7.564-13.561,0.024-22,0c-0.967-0.003-3.263-1.911-4-2c-6.887-0.828-12.835,1.285-19,0
		c0.086,1.419,0.165,2.832-1,3c-0.67-2.454-5.819-3.063-7-2c-0.895,4.562,3.288,4.045,6,5c1.086-0.247,0.679-1.988,2-2
		c7.909,3.927,15.111,2.375,22,7c0.912-4.421,6.695-3.972,10-6c0.715,0.123,1.604,2.534,3,3c-0.715-0.239,0.613-2.04,1-2
		c0.946,0.098,1.266,1.697,3,2c5.853,1.021,15.603-0.255,19,1c-2.857-0.521,1.614-1.479,2-2c0.658,2.675,3.672,2.995,5,5l-0.5,1.5
		l0.5,1.5c0.189,0.81,1.003,0.997,1,2l0.5,1l0.5,1c-7.931,1.736-11.881,7.453-20,9c-1.059,3.726,2.105,3.228,3,5h-1v1
		c-1.553,4.219,5.553-0.219,4,4l-1.5-0.5l0.5,1.5c-1.497,1.753-4.174-0.883-5,3c0.934,0.733,1.515,1.818,2,3
		c-3.114-1.105-3.574-0.645-2,2c-4.558-2.055-6.029,4.481-11,5c0.551-2.051-1.909-2.386-2-1c4.473,2.857-1.012,4.141-1,8
		c2.984-0.016,3.4-2.6,6-3l0.5,1.5l0.5-1.5c4.3-0.7,2.365-7.635,9-6c-0.086-1.419-0.165-2.832,1-3c1.615-0.282,1.722,0.945,3,1
		c-0.503-5.271,5.506-5.57,3-10l-0.5-1l-0.5-1c6.521-1.146,4.036-11.297,11-12c-2.3-0.789,1.721-3.498,2-5l1.5-0.5l-0.5-1.5
		c1.23-0.437,2.054-1.28,2-3c-0.805-0.529-1.623-1.043-3-1l0.5-1.5L503.392,99.646z M477.392,123.646c0.333,0,0.667,0,1,0
		c0-0.667,0-1.333,0-2c-0.667,0-1.333,0-2,0c0,0.667,0,1.333,0,2l-1.5-0.5l0.5,1.5c-0.333,0-0.667,0-1,0
		c0.547,1.453-1.169,5.168,1,5c-0.172-4.214,2.239-0.686,3,0c-0.083-1.583,0.48-3.814-1-4l0.5-1L477.392,123.646z"/>
	<path fill-rule="evenodd" clip-rule="evenodd" d="M470.392,222.646v1c0.367,1.701-0.78,1.887-2,2c0.798-1.868,1.671-3.662,2-6
		c1.172,0.161,0.844,1.823,1,3H470.392z"/>
	<path fill-rule="evenodd" clip-rule="evenodd" d="M526.559,305.146l-1.167,1.5c-2.386-4.797-8.65-10.434-5-18
		c5.999,2.334,6.629,10.037,8,17L526.559,305.146z"/>
	<path fill-rule="evenodd" clip-rule="evenodd" d="M520.892,366.146l1.5-0.5c-2.884,2.782-3.565,7.769-5,12
		c-10.911,2.272-22.251,0.169-32,0c-2.391-11.653,10.992-15.482,15-24l0.5,1.5l1.5,0.5c0,1,0,2,0,3c2.884,4.116,6.908,7.092,12,9
		c1.727-0.606-0.077-4.743,2-5c3.781-1.447,1.919,2.748,5,2L520.892,366.146z"/>
	<path fill-rule="evenodd" clip-rule="evenodd" d="M441.559,298.146l-1.167,1.5c-0.81-0.19-0.997-1.003-2-1c0-1.667,0-3.333,0-5
		l1.5,0.5l0.5-1.5c1.644,2.417,5.113,2.291,3,6L441.559,298.146z"/>
	<path fill-rule="evenodd" clip-rule="evenodd" d="M224.892,300.146l1.5-0.5c-1.092,2.908-0.936,7.064-3,9l-0.5-1.5l-1.5-0.5
		c0.745-3.078-2.745-1.922-2-5c2.58-0.086,1.052-4.281,5-3L224.892,300.146z"/>
	<path fill-rule="evenodd" clip-rule="evenodd" d="M429.392,268.646c-1.357-0.31-0.83-2.504-1-4c5.107,1.281,1.058-2.914,3-3
		c3.314,0.686,4.533,3.467,5,7c-2.465-0.132-4.818-0.151-6,1v-1H429.392z"/>
	<path fill-rule="evenodd" clip-rule="evenodd" d="M138.392,62.646C135.019,58.59,140.433,54.467,138.392,62.646L138.392,62.646z"/>
	<path fill-rule="evenodd" clip-rule="evenodd" d="M134.392,47.646c2.578,0.241-1.373,1.721,0,4
		C131.904,51.496,134.099,48.26,134.392,47.646z"/>
	<path fill-rule="evenodd" clip-rule="evenodd" d="M122.392,123.646c0.292-3.723,2.487,2.943,0,2
		C120.726,127.996,122.482,125.281,122.392,123.646z"/>
	<path fill-rule="evenodd" clip-rule="evenodd" d="M461.392,245.646c-0.388,3.612-1.327,6.673-3,9l-0.5-1.5l-1.5,0.5
		c-2.279,1.373-3.759-2.578-4,0c-3.104-4.807,5.857-6.115,7-10l0.5,1.5L461.392,245.646z"/>
	<path fill-rule="evenodd" clip-rule="evenodd" d="M420.392,256.646C418.319,255.817,420.919,256.669,420.392,256.646
		L420.392,256.646z"/>
	<path fill-rule="evenodd" clip-rule="evenodd" d="M467.392,259.646c0.558-2.068,3.869,1.349,3,4
		C467.63,264.074,469.453,259.917,467.392,259.646z"/>
	<path fill-rule="evenodd" clip-rule="evenodd" d="M425.392,273.646C429.684,272.914,417.666,274.965,425.392,273.646
		L425.392,273.646z"/>
	<g>
		<path fill-rule="evenodd" clip-rule="evenodd" fill="none" stroke="#000000" stroke-width="2.1394" stroke-linecap="round" d="
			M521.392,239.146c2.551-3.437,1.975-8.194,2-12.5"/>
		<path fill-rule="evenodd" clip-rule="evenodd" fill="none" stroke="#000000" stroke-width="2.4402" stroke-linecap="round" d="
			M321.892,237.646c3.664-0.699,7.083-1.935,11-1"/>
		<path fill-rule="evenodd" clip-rule="evenodd" fill="none" stroke="#000000" stroke-width="2.1213" stroke-linecap="round" d="
			M308.892,239.646c1.708,0,3.399,0,4.5,0"/>
		<path fill-rule="evenodd" clip-rule="evenodd" fill="none" stroke="#000000" stroke-width="1.5689" stroke-linecap="round" d="
			M294.892,241.646c2.12-0.104,4.479-1.191,6.5,0"/>
		<path fill-rule="evenodd" clip-rule="evenodd" fill="none" stroke="#000000" stroke-width="2.1381" stroke-linecap="round" d="
			M305.892,258.646c2.306-0.096,4.671,0.062,7,0"/>
		<path fill-rule="evenodd" clip-rule="evenodd" fill="none" stroke="#000000" stroke-width="2.6046" stroke-linecap="round" d="
			M192.892,285.146c3.034-6.445-0.027-13.227,0-20"/>
		<path fill-rule="evenodd" clip-rule="evenodd" fill="none" stroke="#000000" stroke-width="1.9306" stroke-linecap="round" d="
			M189.392,271.146c0.315-1.773-0.529-3.368-1-5"/>
		<path fill-rule="evenodd" clip-rule="evenodd" fill="none" stroke="#000000" stroke-width="2" stroke-linecap="round" d="
			M468.892,279.146c1.125,0.466,2.143,1.187,3,1.5"/>
		<path fill-rule="evenodd" clip-rule="evenodd" fill="none" stroke="#000000" stroke-width="2.4833" stroke-linecap="round" d="
			M466.892,282.146c0.242-1.376,0.784-2.106,2-3"/>
		<path fill-rule="evenodd" clip-rule="evenodd" fill="none" stroke="#000000" stroke-width="3.0822" stroke-linecap="round" d="
			M468.892,279.146c0-1,0-2,0-3"/>
		<path fill-rule="evenodd" clip-rule="evenodd" fill="none" stroke="#000000" stroke-width="2.0817" stroke-linecap="round" d="
			M455.392,285.146c0-0.667,0-1.333,0-2"/>
		<path fill-rule="evenodd" clip-rule="evenodd" fill="none" stroke="#000000" stroke-width="1.8156" stroke-linecap="round" d="
			M459.892,316.146c0.524-4.763,2.396-9.151,4.667-13.333"/>
		<path fill-rule="evenodd" clip-rule="evenodd" fill="none" stroke="#000000" stroke-width="2.0463" stroke-linecap="round" d="
			M193.392,323.146c1.067-2.495,1.489-5.399,0.5-8"/>
		<path fill-rule="evenodd" clip-rule="evenodd" fill="none" stroke="#000000" stroke-width="2.1344" stroke-linecap="round" d="
			M194.392,336.146c0-1.333,0-2.667,0-4"/>
		<path fill-rule="evenodd" clip-rule="evenodd" fill="none" stroke="#000000" stroke-width="1.3601" stroke-linecap="round" d="
			M104.892,30.646c4.488-0.12,7.048,2.651,11,4"/>
		<path fill-rule="evenodd" clip-rule="evenodd" fill="none" stroke="#000000" stroke-width="1.2559" stroke-linecap="round" d="
			M115.892,34.646c9.385,4.678,19.629,6.74,27.5,13.5"/>
		<path fill-rule="evenodd" clip-rule="evenodd" fill="none" stroke="#000000" stroke-width="1.7596" stroke-linecap="round" d="
			M167.892,59.646c29.618,4.422,59.529,3.017,89,8"/>
		<path fill-rule="evenodd" clip-rule="evenodd" fill="none" stroke="#000000" stroke-width="2.2027" stroke-linecap="round" d="
			M279.892,68.146c4.506-0.485,10.062-1.446,14.167,0.5"/>
		<path fill-rule="evenodd" clip-rule="evenodd" fill="none" stroke="#000000" stroke-width="2.2764" stroke-linecap="round" d="
			M294.059,68.646c4.25-0.032,8.669-0.44,12.833,0.5"/>
		<path fill-rule="evenodd" clip-rule="evenodd" fill="none" stroke="#000000" stroke-width="2.1213" stroke-linecap="round" d="
			M316.892,69.646c1.996,0.13,4.112-0.372,6,0.5"/>
		<path fill-rule="evenodd" clip-rule="evenodd" fill="none" stroke="#000000" stroke-width="1.5584" stroke-linecap="round" d="
			M379.892,71.146c1.218-0.613,2.36-0.936,4-1"/>
		<path fill-rule="evenodd" clip-rule="evenodd" fill="none" stroke="#000000" stroke-width="1.2" stroke-linecap="round" d="
			M67.392,80.646c-0.947-0.962-1.395-2.15-2-3"/>
		<path fill-rule="evenodd" clip-rule="evenodd" fill="none" stroke="#000000" stroke-width="2.5584" stroke-linecap="round" d="
			M57.392,64.646c-0.497-0.363-1.03-0.72-1.564-1.076c-0.577-1.719-0.91-3.589-0.936-5.424"/>
		<path fill-rule="evenodd" clip-rule="evenodd" fill="none" stroke="#000000" stroke-width="1.2649" stroke-linecap="round" d="
			M53.392,53.646c-1.117-1.939-0.844-4.737,0.5-6.5"/>
		<path fill-rule="evenodd" clip-rule="evenodd" fill="none" stroke="#000000" stroke-width="1.8708" stroke-linecap="round" d="
			M53.892,45.146c-0.943-1.65-0.186-3.709,1-5"/>
		<path fill-rule="evenodd" clip-rule="evenodd" fill="none" stroke="#000000" stroke-width="2.6077" stroke-linecap="round" d="
			M63.392,10.812c-1.059-0.432-1.724-1.423-1.789-2.134c0.096-0.177,0.193-0.355,0.289-0.533"/>
		<path fill-rule="evenodd" clip-rule="evenodd" fill="none" stroke="#000000" stroke-width="2.6926" stroke-linecap="round" d="
			M63.392,10.812c3.624-2.123,7.922-1.673,11.5-3.667"/>
		<path fill-rule="evenodd" clip-rule="evenodd" fill="none" stroke="#000000" stroke-width="2.6458" stroke-linecap="round" d="
			M47.558,10.146c0.313,1.656,0.376,3.39,0.459,4.907c-2.575,2.532-4.385,5.683-7.125,8.093"/>
		<path fill-rule="evenodd" clip-rule="evenodd" fill="none" stroke="#000000" stroke-width="3.1623" stroke-linecap="round" d="
			M32.225,39.146c-0.222,0.667-0.445,1.333-0.667,2"/>
		<path fill-rule="evenodd" clip-rule="evenodd" fill="none" stroke="#000000" stroke-width="2" stroke-linecap="round" d="
			M14.892,98.146c0.496-1.24,1.298-2.143,2-3"/>
		<path fill-rule="evenodd" clip-rule="evenodd" fill="none" stroke="#000000" stroke-width="2.6693" stroke-linecap="round" d="
			M16.892,103.146c0.253,0.702,0.376,1.256,0.494,1.803c0.828,0.82,2.202,1.087,3.256,1.447"/>
		<path fill-rule="evenodd" clip-rule="evenodd" fill="none" stroke="#000000" stroke-width="1.8708" stroke-linecap="round" d="
			M20.642,106.396c2.716-2.645,7.373,1.661,9.25-1.25"/>
		<path fill-rule="evenodd" clip-rule="evenodd" fill="none" stroke="#000000" stroke-width="1.5132" stroke-linecap="round" d="
			M20.642,106.396c0.482,0.887,1.012,1.747,1.473,2.452c7.841,1.622,14.997-2.14,22.277-4.202"/>
		<path fill-rule="evenodd" clip-rule="evenodd" fill="none" stroke="#000000" stroke-width="1.8708" stroke-linecap="round" d="
			M44.392,104.646c-0.783-1.696-3.077-2.247-2.5-4.5"/>
		<path fill-rule="evenodd" clip-rule="evenodd" fill="none" stroke="#000000" stroke-width="2.4004" stroke-linecap="round" d="
			M44.392,104.646c9.753,5.84,23.125,4.73,34,4"/>
		<path fill-rule="evenodd" clip-rule="evenodd" fill="none" stroke="#000000" stroke-width="2.2361" stroke-linecap="round" d="
			M78.392,108.646c1.587-3.743,5.104-6.457,7.5-9.5"/>
		<path fill-rule="evenodd" clip-rule="evenodd" fill="none" stroke="#000000" stroke-width="2.6309" stroke-linecap="round" d="
			M78.392,108.646c17.17,10.28,18.518,34.566,28.712,50.135c1.711,6.918,4.958,13.351,6.288,20.615"/>
		<path fill-rule="evenodd" clip-rule="evenodd" fill="none" stroke="#000000" stroke-width="1.5811" stroke-linecap="round" d="
			M113.392,179.396c0.962-0.722,2.15-1.179,3-1.75"/>
		<path fill-rule="evenodd" clip-rule="evenodd" fill="none" stroke="#000000" stroke-width="1.7321" stroke-linecap="round" d="
			M116.392,177.646c-0.007-0.587-0.378-1.418-0.5-2.5"/>
		<path fill-rule="evenodd" clip-rule="evenodd" fill="none" stroke="#000000" stroke-width="1.6741" stroke-linecap="round" d="
			M116.392,177.646c6.34,12.689,11.207,26.572,19.833,37.167"/>
		<path fill-rule="evenodd" clip-rule="evenodd" fill="none" stroke="#000000" stroke-width="1.1952" stroke-linecap="round" d="
			M136.225,214.813c1.54-0.96,2.409,0.03,3.667,0.333"/>
		<path fill-rule="evenodd" clip-rule="evenodd" fill="none" stroke="#000000" stroke-width="2.0901" stroke-linecap="round" d="
			M136.225,214.813c1.549,3.871,3.635,7.304,5,11.333"/>
		<path fill-rule="evenodd" clip-rule="evenodd" fill="none" stroke="#000000" stroke-width="2" stroke-linecap="round" d="
			M154.892,228.146c1.875,2.823,3.564,5.847,5,9"/>
		<path fill-rule="evenodd" clip-rule="evenodd" fill="none" stroke="#000000" stroke-width="2.06" stroke-linecap="round" d="
			M164.892,254.146c5.888,13.307,8.47,27.929,12,42"/>
		<path fill-rule="evenodd" clip-rule="evenodd" fill="none" stroke="#000000" stroke-width="1.5" stroke-linecap="round" d="
			M186.892,300.146c-0.624,1.349-1.42,2.625-3,3"/>
		<path fill-rule="evenodd" clip-rule="evenodd" fill="none" stroke="#000000" stroke-width="2.0261" stroke-linecap="round" d="
			M183.892,361.146c0.346-3.563,1.293-6.624,2.5-10"/>
		<path fill-rule="evenodd" clip-rule="evenodd" fill="none" stroke="#000000" stroke-width="1.972" stroke-linecap="round" d="
			M192.892,364.146c2.612-2.888,0.261-7.203,3-10"/>
		<path fill-rule="evenodd" clip-rule="evenodd" fill="none" stroke="#000000" stroke-width="2.9155" stroke-linecap="round" d="
			M203.528,333.6c-1.564-11.11-6.179-24.354-3.636-34.787"/>
		<path fill-rule="evenodd" clip-rule="evenodd" fill="none" stroke="#000000" stroke-width="2.5381" stroke-linecap="round" d="
			M201.892,293.146c0.537-8.222,2.896-15.785,3-24"/>
		<path fill-rule="evenodd" clip-rule="evenodd" fill="none" stroke="#000000" stroke-width="2.6552" stroke-linecap="round" d="
			M226.892,241.146c20.693-6.815,38.076,6.126,50.937,12.516c21.393,10.627,38.346,13.485,65.705,10.246
			c7.688-0.91,16.085-2.442,24.961-5.195c2.772,1.319,5.058,3.571,7.798,5.033"/>
		<path fill-rule="evenodd" clip-rule="evenodd" fill="none" stroke="#000000" stroke-width="2.1909" stroke-linecap="round" d="
			M376.292,263.746c1.253-1.324,2.383-1.92,3.6-2.6"/>
		<path fill-rule="evenodd" clip-rule="evenodd" fill="none" stroke="#000000" stroke-width="2.2583" stroke-linecap="round" d="
			M379.892,261.146c-2.867-4.308-11.645-5.454-8.153-12.829c-0.367-0.437-1.108-0.744-1.847-1.171"/>
		<path fill-rule="evenodd" clip-rule="evenodd" fill="none" stroke="#000000" stroke-width="2.1016" stroke-linecap="round" d="
			M351.892,250.146c-0.525,2.282-0.256,5.117-3,6"/>
		<path fill-rule="evenodd" clip-rule="evenodd" fill="none" stroke="#000000" stroke-width="2.4875" stroke-linecap="round" d="
			M333.892,254.146c2.816,0.626,5.36,0.417,8-0.5"/>
		<path fill-rule="evenodd" clip-rule="evenodd" fill="none" stroke="#000000" stroke-width="3.0822" stroke-linecap="round" d="
			M347.392,249.146c1.784-0.053,3.098,0.057,4.5,0.333"/>
		<path fill-rule="evenodd" clip-rule="evenodd" fill="none" stroke="#000000" stroke-width="2.8658" stroke-linecap="round" d="
			M331.892,240.146c8.973,0.549,16.845-4.57,25-7"/>
		<path fill-rule="evenodd" clip-rule="evenodd" fill="none" stroke="#000000" stroke-width="2.5531" stroke-linecap="round" d="
			M385.892,214.146c13.821-5.044,25.493-2.649,31.214,0.776c10.83,6.484,9.115,16.987,14.255,32.118
			c3.367,9.914,6.882,16.975,9.031,26.355"/>
		<path fill-rule="evenodd" clip-rule="evenodd" fill="none" stroke="#000000" stroke-width="2.8137" stroke-linecap="round" d="
			M440.392,273.396c1.774,2.407,3.085,5.719,3.833,8.75"/>
		<path fill-rule="evenodd" clip-rule="evenodd" fill="none" stroke="#000000" stroke-width="2.6898" stroke-linecap="round" d="
			M458.559,365.146c-2.757-33.184,20.784-61.227,22.833-94.5"/>
		<path fill-rule="evenodd" clip-rule="evenodd" fill="none" stroke="#000000" stroke-width="2.1344" stroke-linecap="round" d="
			M471.892,241.146c-0.672-1.886-0.755-4.12,0-6"/>
		<path fill-rule="evenodd" clip-rule="evenodd" fill="none" stroke="#000000" stroke-width="1.291" stroke-linecap="round" d="
			M470.392,222.646c0.649,0.292,1.618,0.838,2.5,1.5"/>
		<path fill-rule="evenodd" clip-rule="evenodd" fill="none" stroke="#000000" stroke-width="1.2383" stroke-linecap="round" d="
			M395.892,70.146c2.472-0.267,5.196,0.578,7.5-0.5"/>
		<path fill-rule="evenodd" clip-rule="evenodd" fill="none" stroke="#000000" stroke-width="2.3418" stroke-linecap="round" d="
			M422.892,69.146c0.188-0.328,0.375-0.656,0.562-0.984c5.374-1.141,10.936-1.847,16.438-2.516"/>
		<path fill-rule="evenodd" clip-rule="evenodd" fill="none" stroke="#000000" stroke-width="3.1305" stroke-linecap="round" d="
			M439.892,65.646c4.438-0.654,9.732-1.25,14,0.5"/>
		<path fill-rule="evenodd" clip-rule="evenodd" fill="none" stroke="#000000" stroke-width="5.0498" stroke-linecap="round" d="
			M453.892,66.146c1,0,2,0,3,0"/>
		<path fill-rule="evenodd" clip-rule="evenodd" fill="none" stroke="#000000" stroke-width="3.1464" stroke-linecap="round" d="
			M456.892,66.146c1.984-1.34,4.616-1.136,6.857-0.714"/>
		<path fill-rule="evenodd" clip-rule="evenodd" fill="none" stroke="#000000" stroke-width="1.8065" stroke-linecap="round" d="
			M539.392,260.646c-3.496-31.031-19.466-58.462-14-91.5"/>
		<path fill-rule="evenodd" clip-rule="evenodd" fill="none" stroke="#000000" stroke-width="1.3693" stroke-linecap="round" d="
			M513.892,237.146c-0.117-1.826,0.312-3.086,0.5-4"/>
		<path fill-rule="evenodd" clip-rule="evenodd" fill="none" stroke="#000000" stroke-width="3.1623" stroke-linecap="round" d="
			M526.559,305.146c0.222,0.667,0.444,1.333,0.666,2"/>
		<path fill-rule="evenodd" clip-rule="evenodd" fill="none" stroke="#000000" stroke-width="3.4157" stroke-linecap="round" d="
			M537.059,276.313c-2.996-5.708-3.615-12.027-5.167-18.167"/>
		<path fill-rule="evenodd" clip-rule="evenodd" fill="none" stroke="#000000" stroke-width="2.9155" stroke-linecap="round" d="
			M537.059,276.313c1.864-0.441,2.474-2.465,2.333-4.167"/>
		<path fill-rule="evenodd" clip-rule="evenodd" fill="none" stroke="#000000" stroke-width="3.2742" stroke-linecap="round" d="
			M537.059,276.313c1.138,12.978,3.642,25.839-0.5,38.833"/>
		<path fill-rule="evenodd" clip-rule="evenodd" fill="none" stroke="#000000" stroke-width="2.3531" stroke-linecap="round" d="
			M500.892,355.146c3.29-19.399,5.539-40.52-2-59"/>
		<path fill-rule="evenodd" clip-rule="evenodd" fill="none" stroke="#000000" stroke-width="1.8228" stroke-linecap="round" d="
			M495.892,287.146c-3.586-5.078-4.164-11.896-8-17"/>
		<path fill-rule="evenodd" clip-rule="evenodd" fill="none" stroke="#000000" stroke-width="2.1886" stroke-linecap="round" d="
			M424.892,363.146c12.879-18.797,19.738-40.619,22.363-63.454"/>
		<path fill-rule="evenodd" clip-rule="evenodd" fill="none" stroke="#000000" stroke-width="3" stroke-linecap="round" d="
			M447.255,299.692c-1.966,0.884-4.54,0.34-5.696-1.546"/>
		<path fill-rule="evenodd" clip-rule="evenodd" fill="none" stroke="#000000" stroke-width="2.3905" stroke-linecap="round" d="
			M439.892,294.146c-0.66-1.667-0.134-3.333,0-5"/>
		<path fill-rule="evenodd" clip-rule="evenodd" fill="none" stroke="#000000" stroke-width="2.9504" stroke-linecap="round" d="
			M171.558,354.146c9.835-12.073,9.392-28.075,9-43"/>
		<path fill-rule="evenodd" clip-rule="evenodd" fill="none" stroke="#000000" stroke-width="2.4671" stroke-linecap="round" d="
			M1.892,91.146c-0.962-1.828-0.637-3.843-0.456-5.792c10.19-13.514,31.107-24.43,30.122-44.208"/>
		<path fill-rule="evenodd" clip-rule="evenodd" fill="none" stroke="#000000" stroke-width="2.879" stroke-linecap="round" d="
			M31.558,41.146c-9.264-0.229-21.949-7.8-20.066-18.4"/>
		<path fill-rule="evenodd" clip-rule="evenodd" fill="none" stroke="#000000" stroke-width="1.4012" stroke-linecap="round" d="
			M11.492,22.746c-0.191-0.24-0.382-0.48-0.573-0.72c-1.033-1.902-0.499-4.333,1.2-5.639c5.665-1.96,13.396-2.031,17.772,1.759"/>
		<path fill-rule="evenodd" clip-rule="evenodd" fill="none" stroke="#000000" stroke-width="2.6637" stroke-linecap="round" d="
			M47.558,10.146c-4.8,0.209-8.737-1.915-13.333-2"/>
		<path fill-rule="evenodd" clip-rule="evenodd" fill="none" stroke="#000000" stroke-width="2.0494" stroke-linecap="round" d="
			M47.558,10.146c1.271-2.519,2.969-5.156,5.333-7"/>
		<path fill-rule="evenodd" clip-rule="evenodd" fill="none" stroke="#000000" stroke-width="2.2361" stroke-linecap="round" d="
			M52.892,3.146c-0.188-0.326-0.375-0.651-0.563-0.978c-4.735-2.242-10.383-0.57-14.437,1.978"/>
		<path fill-rule="evenodd" clip-rule="evenodd" fill="none" stroke="#000000" stroke-width="1.6469" stroke-linecap="round" d="
			M52.892,3.146c6.777-1.976,14.154-0.233,21,0"/>
		<path fill-rule="evenodd" clip-rule="evenodd" fill="none" stroke="#000000" stroke-width="1.5652" stroke-linecap="round" d="
			M73.892,3.146c0.333-0.233,0.667-0.467,1-0.7c4.229-1.769,6.867,1.829,10.683,2.017c0.637,1.829,2.429,3.29,1.76,5.494
			c-0.609,0.547-0.839,1.611-1.443,3.189"/>
		<path fill-rule="evenodd" clip-rule="evenodd" fill="none" stroke="#000000" stroke-width="3.3912" stroke-linecap="round" d="
			M11.492,22.746c0.867-0.381,1.611-0.634,2.4-0.934"/>
		<path fill-rule="evenodd" clip-rule="evenodd" fill="none" stroke="#000000" stroke-width="3.0551" stroke-linecap="round" d="
			M150.225,236.146c-0.533-1.039-1.491-1.695-2.333-2.333"/>
		<path fill-rule="evenodd" clip-rule="evenodd" fill="none" stroke="#000000" stroke-width="1.7906" stroke-linecap="round" d="
			M113.392,179.396c2.716,5.724,3.061,11.937,5.738,17.394c4.846,17.396,23.695,56.419,45.762,57.356"/>
		<path fill-rule="evenodd" clip-rule="evenodd" fill="none" stroke="#000000" stroke-width="2.0354" stroke-linecap="round" d="
			M164.892,254.146c1.138-1.583-0.201-3.049-0.75-4.5"/>
		<path fill-rule="evenodd" clip-rule="evenodd" fill="none" stroke="#000000" stroke-width="1.3323" stroke-linecap="round" d="
			M164.142,249.646c-2.214-0.022-3.136-1.955-4.25-3.5"/>
		<path fill-rule="evenodd" clip-rule="evenodd" fill="none" stroke="#000000" stroke-width="2.0548" stroke-linecap="round" d="
			M164.142,249.646c0.682-1.926-1.069-3.586-1.25-5.5"/>
		<path fill-rule="evenodd" clip-rule="evenodd" fill="none" stroke="#000000" stroke-width="1.8708" stroke-linecap="round" d="
			M439.892,65.646c0.357,0.649,0.78,1.618,1,2.5"/>
		<path fill-rule="evenodd" clip-rule="evenodd" fill="none" stroke="#000000" stroke-width="2.5495" stroke-linecap="round" d="
			M456.892,66.146c0.616,2.003,2.728,2.551,4,4"/>
		<path fill-rule="evenodd" clip-rule="evenodd" fill="none" stroke="#000000" stroke-width="1.8974" stroke-linecap="round" d="
			M453.892,66.146c-1.059,1-1.544,2-2,3"/>
		<path fill-rule="evenodd" clip-rule="evenodd" fill="none" stroke="#000000" stroke-width="2.7285" stroke-linecap="round" d="
			M525.559,95.146c0.383-3.451,1.063-8.529-2.667-10.333"/>
		<path fill-rule="evenodd" clip-rule="evenodd" fill="none" stroke="#000000" stroke-width="2.7988" stroke-linecap="round" d="
			M500.892,102.146c1.333-0.667,2.667-1.333,4-2"/>
		<path fill-rule="evenodd" clip-rule="evenodd" fill="none" stroke="#000000" stroke-width="2.1448" stroke-linecap="round" d="
			M502.892,106.646c1-0.029,2,0.228,3,0.5"/>
		<path fill-rule="evenodd" clip-rule="evenodd" fill="none" stroke="#000000" stroke-width="1.2247" stroke-linecap="round" d="
			M485.392,121.646c0.649,0.351,1.618,0.382,2.5,0.5"/>
		<path fill-rule="evenodd" clip-rule="evenodd" fill="none" stroke="#000000" stroke-width="1.5" stroke-linecap="round" d="
			M474.892,123.146c1.405,0.908,2.204,1.241,3,1.5"/>
		<path fill-rule="evenodd" clip-rule="evenodd" fill="none" stroke="#000000" stroke-width="1.4907" stroke-linecap="round" d="
			M491.892,125.646c-0.475,0.17-0.821,0.803-1.253,1.274c-0.831,0.207-1.802-0.28-2.747-0.774"/>
		<path fill-rule="evenodd" clip-rule="evenodd" fill="none" stroke="#000000" stroke-width="1.2247" stroke-linecap="round" d="
			M475.892,146.146c0-0.667,0-1.333,0-2"/>
		<path fill-rule="evenodd" clip-rule="evenodd" fill="none" stroke="#000000" stroke-width="3.0373" stroke-linecap="round" d="
			M511.559,225.146c7.24-20.537,4.605-42.599,5.666-64"/>
		<path fill-rule="evenodd" clip-rule="evenodd" fill="none" stroke="#000000" stroke-width="1.9149" stroke-linecap="round" d="
			M471.892,241.146c0.851-0.321,1.382-0.609,2-1"/>
		<path fill-rule="evenodd" clip-rule="evenodd" fill="none" stroke="#000000" stroke-width="2.4047" stroke-linecap="round" d="
			M471.892,241.146c-0.914,9.88,2.605,19.631,8,28"/>
		<path fill-rule="evenodd" clip-rule="evenodd" fill="none" stroke="#000000" stroke-width="3.3439" stroke-linecap="round" d="
			M500.559,245.146c1.41-2.821,1.903-5.963,2.666-9"/>
		<path fill-rule="evenodd" clip-rule="evenodd" fill="none" stroke="#000000" stroke-width="3.089" stroke-linecap="round" d="
			M505.559,222.146c0.439-4.605,0.575-9.397,0-14"/>
		<path fill-rule="evenodd" clip-rule="evenodd" fill="none" stroke="#000000" stroke-width="1.9579" stroke-linecap="round" d="
			M379.892,261.146c2.1,1.131,3.628,2.274,5,4"/>
		<path fill-rule="evenodd" clip-rule="evenodd" fill="none" stroke="#000000" stroke-width="3.1592" stroke-linecap="round" d="
			M376.292,263.746c7.269,10.373,20.229,13.695,31.225,18.15"/>
		<path fill-rule="evenodd" clip-rule="evenodd" fill="none" stroke="#000000" stroke-width="2.49" stroke-linecap="round" d="
			M407.517,281.896c0.312-0.752,1.108-2.082,1.832-3.769c-0.895-1.419-1.272-2.646-1.457-3.981"/>
		<path fill-rule="evenodd" clip-rule="evenodd" fill="none" stroke="#000000" stroke-width="4.4721" stroke-linecap="round" d="
			M407.517,281.896c0.077,0.155,0.155,0.31,0.232,0.464"/>
		<path fill-rule="evenodd" clip-rule="evenodd" fill="none" stroke="#000000" stroke-width="3.6968" stroke-linecap="round" d="
			M407.749,282.36c3.113,0.305,6.186,0.237,9.143,1.286"/>
		<path fill-rule="evenodd" clip-rule="evenodd" fill="none" stroke="#000000" stroke-width="1.6733" stroke-linecap="round" d="
			M427.392,276.646c0.412-1.33,1.117-1.838,2.5-2.5"/>
		<path fill-rule="evenodd" clip-rule="evenodd" fill="none" stroke="#000000" stroke-width="1.2649" stroke-linecap="round" d="
			M430.892,272.146c-0.98-1.412-0.777-2.582-0.5-3.5"/>
		<path fill-rule="evenodd" clip-rule="evenodd" fill="none" stroke="#000000" stroke-width="1.3601" stroke-linecap="round" d="
			M479.892,226.146c0.649,0.12,1.094,0.302,1.529,0.486c0.592,0.03,1.449-0.306,2.218-0.754c0.215-2.021,0.704-4.348-0.247-6.232"/>
		<path fill-rule="evenodd" clip-rule="evenodd" fill="none" stroke="#000000" stroke-width="3.3912" stroke-linecap="round" d="
			M203.528,333.6c0.136,0.831,0.377,2.279,0.697,3.546"/>
		<path fill-rule="evenodd" clip-rule="evenodd" fill="none" stroke="#000000" stroke-width="2.2672" stroke-linecap="round" d="
			M226.892,335.146c0.953-9.861-3.122-18.938-4-28"/>
		<path fill-rule="evenodd" clip-rule="evenodd" fill="none" stroke="#000000" stroke-width="2.0881" stroke-linecap="round" d="
			M224.892,300.146c3.524-16.766,0.571-35.06,1-52"/>
		<path fill-rule="evenodd" clip-rule="evenodd" fill="none" stroke="#000000" stroke-width="1.633" stroke-linecap="round" d="
			M218.892,251.146c-0.788-0.788-1.354-1.354-2-2"/>
		<path fill-rule="evenodd" clip-rule="evenodd" fill="none" stroke="#000000" stroke-width="2.9155" stroke-linecap="round" d="
			M498.892,285.146c-0.238-2.683,0.282-5.476-1-8"/>
		<path fill-rule="evenodd" clip-rule="evenodd" fill="none" stroke="#000000" stroke-width="2.1213" stroke-linecap="round" d="
			M440.392,273.396c-0.394,0.137-0.942,0.195-1.5,0.25"/>
		<path fill-rule="evenodd" clip-rule="evenodd" fill="none" stroke="#000000" stroke-width="2.5197" stroke-linecap="round" d="
			M407.749,282.36c-0.97,4.955-0.349,10.519,0.649,15.575c1.436,2.114,4.016,2.495,6.285,1.695c0.743-0.509,1.493-1.434,3.208-2.484
			"/>
		<path fill-rule="evenodd" clip-rule="evenodd" fill="none" stroke="#000000" stroke-width="2.708" stroke-linecap="round" d="
			M447.255,299.692c1.341-4.476,0.091-9.25-1.649-13.403"/>
		<path fill-rule="evenodd" clip-rule="evenodd" fill="none" stroke="#000000" stroke-width="1.2432" stroke-linecap="round" d="
			M520.892,366.146c1.362-1.902,1.554-5.127,0-7"/>
		<path fill-rule="evenodd" clip-rule="evenodd" fill="none" stroke="#000000" stroke-width="1.5872" stroke-linecap="round" d="
			M203.528,333.6c0.42-0.206,0.84-0.411,1.26-0.617c2.432-8.148,1.757-17.412,2.354-26.087"/>
		<path fill-rule="evenodd" clip-rule="evenodd" fill="none" stroke="#000000" stroke-width="2.0889" stroke-linecap="round" d="
			M119.892,52.146c1.334-1.75,2.187-3.828,2.5-6"/>
		<path fill-rule="evenodd" clip-rule="evenodd" fill="none" stroke="#000000" stroke-width="2.1506" stroke-linecap="round" d="
			M125.892,56.146c1.233-1.226,1.704-2.776,1.5-4.5"/>
		<path fill-rule="evenodd" clip-rule="evenodd" fill="none" stroke="#000000" stroke-width="1.8166" stroke-linecap="round" d="
			M131.392,69.146c-0.097-1.8,1.535-3.166,1.5-5"/>
		<path fill-rule="evenodd" clip-rule="evenodd" fill="none" stroke="#000000" stroke-width="1.291" stroke-linecap="round" d="
			M131.892,72.146c0.667-0.547,1.333-0.781,2-1"/>
		<path fill-rule="evenodd" clip-rule="evenodd" fill="none" stroke="#000000" stroke-width="1.8708" stroke-linecap="round" d="
			M115.892,34.646c0.036,2.194-0.805,4.269-0.5,6.5"/>
		<path fill-rule="evenodd" clip-rule="evenodd" fill="none" stroke="#000000" stroke-width="2.4495" stroke-linecap="round" d="
			M104.892,30.646c0.288,1.784,0.439,3.098,0.5,4.5"/>
		<path fill-rule="evenodd" clip-rule="evenodd" fill="none" stroke="#000000" stroke-width="1.291" stroke-linecap="round" d="
			M69.892,78.146c-0.643-1-1.22-2-2-3"/>
		<path fill-rule="evenodd" clip-rule="evenodd" fill="none" stroke="#000000" stroke-width="2.572" stroke-linecap="round" d="
			M63.392,10.812c-0.535,3.981,4.25,2.9,5.5,5.333"/>
		<path fill-rule="evenodd" clip-rule="evenodd" fill="none" stroke="#000000" stroke-width="2.2361" stroke-linecap="round" d="
			M73.892,3.146c0.333,0.667,0.667,1.333,1,2"/>
		<path fill-rule="evenodd" clip-rule="evenodd" fill="none" stroke="#000000" stroke-width="2.1213" stroke-linecap="round" d="
			M100.892,36.646c0.667,0.06,1.333,0.276,2,0.5"/>
		<path fill-rule="evenodd" clip-rule="evenodd" fill="none" stroke="#000000" stroke-width="3.1901" stroke-linecap="round" d="
			M104.892,30.646c-3.196-2.374-4.21-8.128-9-7.5"/>
		<path fill-rule="evenodd" clip-rule="evenodd" fill="none" stroke="#000000" stroke-width="3.1623" stroke-linecap="round" d="
			M62.558,37.146c0.222,0.667,0.445,1.333,0.667,2"/>
		<path fill-rule="evenodd" clip-rule="evenodd" fill="none" stroke="#000000" stroke-width="1.291" stroke-linecap="round" d="
			M74.392,45.646c-0.292-0.649-0.838-1.618-1.5-2.5"/>
		<path fill-rule="evenodd" clip-rule="evenodd" fill="none" stroke="#000000" stroke-width="1.291" stroke-linecap="round" d="
			M68.892,49.146c-0.643-1-1.22-2-2-3"/>
		<path fill-rule="evenodd" clip-rule="evenodd" fill="none" stroke="#000000" stroke-width="2.2361" stroke-linecap="round" d="
			M71.892,72.146c0.667,0.333,1.333,0.667,2,1"/>
		<path fill-rule="evenodd" clip-rule="evenodd" fill="none" stroke="#000000" stroke-width="2.2361" stroke-linecap="round" d="
			M315.892,81.146c-0.333,0.667-0.667,1.333-1,2"/>
		<path fill-rule="evenodd" clip-rule="evenodd" fill="none" stroke="#000000" stroke-width="1.2247" stroke-linecap="round" d="
			M120.392,137.646c0.543-1.124,0.447-2.887,0.5-4.5"/>
		<path fill-rule="evenodd" clip-rule="evenodd" fill="none" stroke="#000000" stroke-width="1.2247" stroke-linecap="round" d="
			M125.892,115.146c-0.058-1,0.457-2,1-3"/>
		<path fill-rule="evenodd" clip-rule="evenodd" fill="none" stroke="#000000" stroke-width="1.8105" stroke-linecap="round" d="
			M141.892,214.146c1.733,3.836,5.794,4.562,8.143,7.714"/>
		<path fill-rule="evenodd" clip-rule="evenodd" fill="none" stroke="#000000" stroke-width="2.1602" stroke-linecap="round" d="
			M457.392,255.146c0.06-0.667,0.276-1.333,0.5-2"/>
		<path fill-rule="evenodd" clip-rule="evenodd" fill="none" stroke="#000000" stroke-width="2.2211" stroke-linecap="round" d="
			M459.892,245.146c1.584-2.611,2.911-5.209,4-8"/>
		<path fill-rule="evenodd" clip-rule="evenodd" fill="none" stroke="#000000" stroke-width="2.0449" stroke-linecap="round" d="
			M396.892,273.146c-0.729-1.92-3.425-1.734-4-4"/>
	</g>
</g>
</svg>
